<?xml version="1.0" standalone="no"?>
<!DOCTYPE svg PUBLIC "-//W3C//DTD SVG 1.1//EN" "http://www.w3.org/Graphics/SVG/1.1/DTD/svg11.dtd" >
<svg xmlns="http://www.w3.org/2000/svg" xmlns:xlink="http://www.w3.org/1999/xlink" version="1.1">
<metadata></metadata>
<defs>
<font id="jostregular" horiz-adv-x="614" >
<font-face units-per-em="2048" ascent="1638" descent="-410" />
<missing-glyph horiz-adv-x="500" />
<glyph />
<glyph />
<glyph unicode="&#xd;" />
<glyph unicode=" " />
<glyph unicode="!" d="M195 82q0 -45 33.5 -79t78.5 -34q47 0 80 34t33 79q0 47 -33 80t-80 33q-45 0 -78.5 -33t-33.5 -80zM205 1434l41 -1024h123l41 1024h-205z" />
<glyph unicode="&#x22;" horiz-adv-x="952" d="M164 819h112l185 615h-195zM532 819h113l184 615h-194z" />
<glyph unicode="#" horiz-adv-x="1239" d="M72 410h1013v133h-262h-41h-409h-33h-268v-133zM154 0h153l113 463l8 37l111 454l8 33l108 447h-153zM154 901h276h29h393h29h286v133h-1013v-133zM584 0h153l348 1434h-153l-111 -455l-8 -33l-106 -442l-11 -37z" />
<glyph unicode="$" horiz-adv-x="1187" d="M113 375q45 -119 119.5 -207t175 -138t217.5 -50q143 0 239.5 51t146.5 144t50 214q0 98 -35 169t-90 119t-118.5 81t-119.5 53q-86 33 -161.5 68.5t-122.5 86t-47 128.5q0 63 24.5 106t76.5 65.5t134 22.5q80 0 135.5 -33.5t94 -88t69.5 -113.5l141 94q-29 74 -89 144.5 t-148 116.5t-205 46t-211 -46t-149.5 -125t-55.5 -177t36 -168t91.5 -118t118 -78.5t115.5 -49.5q82 -29 158.5 -67.5t127 -98t50.5 -151.5q0 -72 -28 -124t-82 -80t-136 -28q-88 0 -156.5 39t-122 111t-96.5 170zM530 98v-327h152v327h-152zM530 1368h152v307h-152v-307z " />
<glyph unicode="%" horiz-adv-x="1538" d="M72 1126q0 -90 40 -164.5t113.5 -118.5t169.5 -44q98 0 171 44t113 118.5t40 164.5q0 92 -40 166t-112.5 118t-171.5 44q-96 0 -169.5 -44t-113.5 -118t-40 -166zM217 1126q0 53 21.5 97.5t61.5 71t95 26.5q57 0 96 -26.5t60.5 -70.5t21.5 -98q0 -51 -21.5 -96t-60 -71.5 t-96.5 -26.5q-55 0 -95 26.5t-61.5 71.5t-21.5 96zM231 0h154l922 1434h-154zM819 307q0 -90 40 -164.5t114 -118.5t170 -44q98 0 170.5 44t112.5 118.5t40 164.5q0 92 -40 166t-112.5 118t-170.5 44q-96 0 -170 -44t-114 -118t-40 -166zM965 307q0 53 21.5 97.5t61 71 t95.5 26.5q57 0 96 -26.5t60.5 -71t21.5 -97.5q0 -51 -21.5 -96t-60.5 -71.5t-96 -26.5q-55 0 -95 26.5t-61.5 71.5t-21.5 96z" />
<glyph unicode="&#x26;" horiz-adv-x="1382" d="M82 375q0 -121 66.5 -210t172 -137t222.5 -48q137 0 251.5 51t213 135t184.5 189.5t168 211.5l-127 80q-74 -100 -153 -192.5t-162.5 -165t-175 -115.5t-189.5 -43q-82 0 -149.5 31t-107.5 88t-40 135t37 133t95 97t124 76t121 67q72 43 127 87t94 92t59.5 97t20.5 101 q0 86 -41 158.5t-118 117.5t-185 45q-102 0 -181 -39t-124 -110.5t-45 -167.5q0 -78 39.5 -143.5t92 -118t85.5 -91.5l688 -786h196l-757 870q-61 72 -116.5 135.5t-55.5 133.5q0 78 47 125t131 47q57 0 96 -22.5t60.5 -61.5t21.5 -92q0 -70 -66.5 -142.5t-181.5 -138.5 q-41 -23 -98 -50.5t-116.5 -64.5t-110 -88t-82 -118.5t-31.5 -157.5z" />
<glyph unicode="'" horiz-adv-x="583" d="M164 819h112l185 615h-195z" />
<glyph unicode="(" horiz-adv-x="634" d="M184 594q0 -260 56.5 -516t179.5 -488h153q-106 231 -155 487.5t-49 516.5q0 262 49 518t155 485h-153q-123 -229 -179.5 -485t-56.5 -518z" />
<glyph unicode=")" horiz-adv-x="634" d="M61 -410h154q123 231 179.5 487.5t56.5 516.5q0 262 -56.5 518t-179.5 485h-154q109 -229 157 -485t48 -518q0 -260 -48 -516t-157 -488z" />
<glyph unicode="*" horiz-adv-x="1212" d="M205 1090l385 -105l33 98l-375 144zM313 754l117 -84l217 334l-82 61zM535 1434l20 -400h102l21 400h-143zM565 1004l217 -334l117 84l-252 311zM590 1083l33 -98l385 105l-43 137z" />
<glyph unicode="+" horiz-adv-x="1259" d="M133 440h993v164h-993v-164zM543 20h174v1004h-174v-1004z" />
<glyph unicode="," horiz-adv-x="630" d="M123 -305l119 -43l225 512l-164 61z" />
<glyph unicode="-" horiz-adv-x="430" d="M10 410h410v153h-410v-153z" />
<glyph unicode="." d="M195 82q0 -45 33.5 -79t78.5 -34q47 0 80 34t33 79q0 47 -33 80t-80 33q-45 0 -78.5 -33t-33.5 -80z" />
<glyph unicode="/" horiz-adv-x="1054" d="M31 -307h164l829 1741h-164z" />
<glyph unicode="0" horiz-adv-x="1228" d="M82 717q0 -215 67.5 -381t187.5 -261t277 -95q158 0 278 95t187.5 261t67.5 381t-67.5 381t-187.5 261t-278 95t-277.5 -95t-187 -261t-67.5 -381zM256 717q0 125 24.5 230.5t71.5 182t113.5 118.5t148.5 42q84 0 149.5 -42t113 -118.5t72 -182t24.5 -230.5t-24.5 -230.5 t-72 -182.5t-113 -119t-149.5 -42q-82 0 -148.5 42t-113.5 119t-71.5 182.5t-24.5 230.5z" />
<glyph unicode="1" horiz-adv-x="921" d="M164 1151l317 94v-1245h174v1454l-491 -123v-180z" />
<glyph unicode="2" horiz-adv-x="1165" d="M41 0h1012v164h-654l457 465q84 86 137.5 194.5t53.5 218.5q0 66 -27 137.5t-82 134t-141 102.5t-205 40q-147 0 -253 -64.5t-161 -180t-55 -269.5h174q0 109 35 187.5t101.5 120.5t158.5 42q66 0 117 -22.5t86.5 -59t54 -82t18.5 -92.5q0 -57 -17 -109.5t-51 -102.5 t-81 -101z" />
<glyph unicode="3" horiz-adv-x="1118" d="M123 379q0 -84 32.5 -156.5t92 -127t144 -85t188.5 -30.5q129 0 229 49t158.5 139t58.5 211q0 106 -40 182t-110.5 124t-161.5 70.5t-196 22.5v-112q70 0 129.5 -16.5t104.5 -50.5t70.5 -84t25.5 -116q0 -78 -33 -135t-93 -89t-142 -32t-145.5 31t-99.5 84t-36 121h-176z M184 1077h166q0 94 69.5 156.5t170.5 62.5q72 0 120 -28.5t72.5 -80.5t24.5 -120q0 -51 -19.5 -96t-56.5 -79t-90 -53.5t-123 -19.5v-112q139 0 243.5 49t164 133t59.5 184q0 102 -48 188.5t-137 139.5t-212 53q-117 0 -208 -48t-143.5 -132t-52.5 -197z" />
<glyph unicode="4" horiz-adv-x="1193" d="M41 287h1092v153h-293h-35h-477l405 607v-664v-23v-360h174v1434h-71z" />
<glyph unicode="5" horiz-adv-x="1155" d="M61 281q47 -82 116 -151t166 -109.5t228 -40.5q104 0 194.5 30.5t160 92t108.5 153.5t39 215q0 143 -55 251.5t-152.5 170t-220.5 61.5q-53 0 -107.5 -13t-105.5 -40l96 379h541v154h-676l-188 -764q74 51 130 78.5t112.5 39t123.5 11.5q92 0 165 -41t115 -115t42 -172 t-38 -172t-109.5 -115t-174.5 -41q-78 0 -149.5 34t-125.5 88t-87 116z" />
<glyph unicode="6" horiz-adv-x="1179" d="M102 471q0 -147 64.5 -258t175.5 -172t248 -61q139 0 248.5 61t174 172t64.5 258q0 98 -32.5 183t-91 148.5t-135.5 98.5t-165 35q-70 0 -124 -16.5t-95 -67.5l12 -10l449 592h-219l-483 -666q-41 -57 -66 -133t-25 -164zM268 471q0 98 42 175t115 120t165 43t164.5 -43 t114.5 -120t42 -175t-42 -173t-114.5 -118t-164.5 -43t-165 43t-115 118t-42 173z" />
<glyph unicode="7" horiz-adv-x="1075" d="M61 1270h744l-608 -1270h182l686 1434h-1004v-164z" />
<glyph unicode="8" horiz-adv-x="1118" d="M113 389q0 -84 33.5 -157.5t94 -131t141.5 -89t177 -31.5t177 31.5t141.5 89t94.5 131t34 157.5q0 98 -36 175t-98.5 129t-143.5 79t-169 27t-169 -27t-143.5 -79t-98 -129t-35.5 -175zM164 1087q0 -84 28.5 -150.5t81 -113.5t125 -71.5t160.5 -24.5t161 24.5t125 71.5 t80.5 114t28.5 150q0 102 -52 185.5t-141 132.5t-202 49t-202 -49t-141 -132.5t-52 -185.5zM279 410q0 78 39.5 140t104 99t136.5 37t136.5 -37t104.5 -99.5t40 -139.5q0 -88 -40 -149.5t-104.5 -94.5t-136.5 -33t-136.5 33t-104 94.5t-39.5 149.5zM330 1067q0 68 29.5 121 t82 82.5t117.5 29.5q68 0 119 -29.5t80.5 -82.5t29.5 -121t-31.5 -119t-83.5 -79.5t-114 -28.5q-61 0 -113.5 28.5t-84 79.5t-31.5 119z" />
<glyph unicode="9" horiz-adv-x="1179" d="M102 963q0 -98 33 -183.5t91.5 -149t135 -98t164.5 -34.5q70 0 124.5 16t94.5 68l-12 10l-448 -592h219l483 666q41 57 65.5 132.5t24.5 164.5q0 147 -64.5 257.5t-174 172t-248.5 61.5q-137 0 -248 -61.5t-175.5 -172t-64.5 -257.5zM268 963q0 98 42 172.5t115 117.5 t165 43t164.5 -43t114.5 -117.5t42 -172.5t-42 -174t-114.5 -120t-164.5 -44t-165 44t-115 119.5t-42 174.5z" />
<glyph unicode=":" d="M195 82q0 -45 33.5 -79t78.5 -34q47 0 80 34t33 79q0 47 -33 80t-80 33q-45 0 -78.5 -33t-33.5 -80zM195 860q0 -45 33.5 -78.5t78.5 -33.5q47 0 80 33.5t33 78.5q0 47 -33 80t-80 33q-45 0 -78.5 -33t-33.5 -80z" />
<glyph unicode=";" horiz-adv-x="675" d="M123 -305l119 -43l225 512l-164 61zM256 860q0 -45 34 -78.5t79 -33.5q47 0 79.5 33.5t32.5 78.5q0 47 -32.5 80t-79.5 33q-45 0 -79 -33t-34 -80z" />
<glyph unicode="&#x3c;" horiz-adv-x="1310" d="M133 481l1045 -450v164l-775 342l775 323v164l-1045 -451v-92z" />
<glyph unicode="=" horiz-adv-x="1259" d="M133 287h993v153h-993v-153zM133 594h993v154h-993v-154z" />
<glyph unicode="&#x3e;" horiz-adv-x="1310" d="M133 31l1045 450v92l-1045 451v-164l774 -342l-774 -323v-164z" />
<glyph unicode="?" horiz-adv-x="1140" d="M123 1214l133 -84q47 78 120 124t175 46q92 0 159.5 -32.5t104.5 -94t37 -149.5q0 -78 -47 -150.5t-135 -119.5t-211 -47h-53l40 -359h123l15 246q115 6 213 64.5t159.5 153.5t61.5 212q0 92 -34 170t-94.5 136.5t-141 91t-177.5 32.5q-121 0 -203.5 -29.5t-140 -84 t-104.5 -126.5zM399 82q0 -45 34 -79t79 -34q47 0 80 34t33 79q0 47 -33 80t-80 33q-45 0 -79 -33t-34 -80z" />
<glyph unicode="@" horiz-adv-x="1576" d="M72 655q0 -203 77.5 -355.5t228 -236t370.5 -83.5q176 0 283.5 33.5t199.5 88.5l-72 117q-100 -63 -201.5 -84.5t-209.5 -21.5q-162 0 -282 66.5t-185.5 188t-65.5 287.5q0 141 45 262t128 211.5t201 141.5t261 51q129 0 225 -43t159.5 -117t95.5 -167t32 -195 q0 -129 -38 -208t-86 -114t-79 -35q-33 0 -50 13.5t-23.5 35t-6.5 46.5q0 12 1 28.5t3 26.5l84 473h-153l-74 -512h14q-10 -68 10.5 -123t66.5 -89t108 -34q57 0 120.5 26.5t120 84t91 152t34.5 229.5q0 123 -41 239.5t-122.5 210.5t-204.5 149.5t-287 55.5 q-172 0 -314.5 -61.5t-247 -170t-160.5 -254t-56 -313.5zM389 649q0 -100 40 -173t104.5 -110.5t138.5 -37.5q98 0 178 48t128 144t48 238q0 82 -26.5 156.5t-82 122.5t-143.5 48q-86 0 -175 -50t-149.5 -146.5t-60.5 -239.5zM545 655q0 88 33.5 152.5t87 99.5t108.5 35 q51 0 91 -22.5t63.5 -63.5t23.5 -98q0 -109 -39 -171.5t-94 -89t-106 -26.5q-84 0 -126 49t-42 135z" />
<glyph unicode="A" horiz-adv-x="1351" d="M10 0h195l213 504l16 37l242 569l246 -578l16 -40l209 -492h194l-665 1505zM301 430h758l-62 164h-635z" />
<glyph unicode="B" horiz-adv-x="1142" d="M164 0h389q139 0 248.5 46t174 139.5t64.5 234.5q0 98 -36.5 170t-103 118t-155 68.5t-192.5 22.5h-252v-97h252q70 0 127 -17t99 -52t64.5 -86t22.5 -117q0 -88 -40 -149.5t-110.5 -94t-162.5 -32.5h-215v1126h194q109 0 180.5 -56.5t71.5 -158.5q0 -68 -32.5 -115 t-90 -71.5t-129.5 -24.5h-231v-96h231q129 0 224.5 36.5t148.5 108.5t53 172q0 123 -53 202t-148 118t-225 39h-368v-1434z" />
<glyph unicode="C" horiz-adv-x="1402" d="M82 717q0 -160 55.5 -295t153.5 -234.5t228 -153.5t280 -54q158 0 264 38.5t197 118.5v230q-49 -63 -119 -111.5t-155 -75t-187 -26.5q-141 0 -262 71.5t-196 198.5t-75 293q0 168 75 294t195.5 197.5t262.5 71.5q102 0 187 -26.5t154.5 -75t119.5 -111.5v229 q-90 80 -197 119t-264 39q-150 0 -280 -54t-228 -153.5t-153.5 -234.5t-55.5 -295z" />
<glyph unicode="D" horiz-adv-x="1392" d="M164 0h174v1434h-174v-1434zM260 0h334q209 0 370.5 90t254 251t92.5 376t-92.5 375.5t-254 251t-370.5 90.5h-334v-174h334q121 0 221 -38t172 -109t111 -171t39 -225t-39 -225.5t-111 -171t-172 -108.5t-221 -38h-334v-174z" />
<glyph unicode="E" horiz-adv-x="1126" d="M164 0h174v1434h-174v-1434zM260 0h723v164h-723v-164zM260 696h682v164h-682v-164zM260 1270h723v164h-723v-164z" />
<glyph unicode="F" horiz-adv-x="1024" d="M164 0h174v1434h-174v-1434zM260 696h621v164h-621v-164zM260 1270h641v164h-641v-164z" />
<glyph unicode="G" horiz-adv-x="1587" d="M82 717q0 -160 54 -295t152.5 -234.5t231.5 -153.5t289 -54q164 0 292 60t216 164.5t133 239t45 283.5h-666v-164h478q-18 -84 -58.5 -157.5t-102 -131t-146.5 -89t-191 -31.5q-152 0 -274.5 71.5t-195.5 198.5t-73 293q0 168 73 294t195.5 197.5t274.5 71.5 q164 0 284.5 -64.5t188.5 -179.5l123 113q-61 100 -150.5 167.5t-201 102.5t-244.5 35q-156 0 -289 -54t-231.5 -153.5t-152.5 -234.5t-54 -295z" />
<glyph unicode="H" horiz-adv-x="1464" d="M164 0h174v1434h-174v-1434zM260 696h983v164h-983v-164zM1126 0h174v1434h-174v-1434z" />
<glyph unicode="I" horiz-adv-x="501" d="M164 0h174v1434h-174v-1434z" />
<glyph unicode="J" horiz-adv-x="491" d="M-227 -348q16 -20 52 -44t86 -41.5t103 -17.5q72 0 130.5 19.5t99.5 60.5t62.5 102.5t21.5 145.5v1557h-164v-1536q0 -100 -46 -142.5t-93 -42.5q-55 0 -97 19.5t-65 54.5z" />
<glyph unicode="K" horiz-adv-x="1157" d="M164 0h174v1434h-174v-1434zM285 758l647 -758h215l-651 762l620 672h-215z" />
<glyph unicode="L" horiz-adv-x="921" d="M164 0h737v164h-563v1270h-174v-1434z" />
<glyph unicode="M" horiz-adv-x="1658" d="M82 0h174l106 969l467 -836l467 836l107 -969h174l-174 1505l-574 -1038l-573 1038z" />
<glyph unicode="N" horiz-adv-x="1587" d="M164 0h174v1067l1085 -1139v1506h-174v-1067l-1085 1138v-1505z" />
<glyph unicode="O" horiz-adv-x="1617" d="M82 717q0 -156 54 -291t152.5 -234.5t231.5 -155.5t289 -56q158 0 290 56t230 155.5t152.5 234.5t54.5 291q0 158 -54.5 292t-152.5 233t-230 155.5t-290 56.5q-156 0 -289 -56.5t-231.5 -155.5t-152.5 -233t-54 -292zM266 717q0 162 71 289t193.5 200.5t278.5 73.5 q158 0 279.5 -73.5t192.5 -200.5t71 -289t-71 -289t-192.5 -200.5t-279.5 -73.5q-156 0 -278.5 73.5t-193.5 200.5t-71 289z" />
<glyph unicode="P" horiz-adv-x="1122" d="M164 0h174v1434h-174v-1434zM260 573h293q139 0 248.5 52.5t174 149.5t64.5 229q0 133 -64.5 229t-174 148.5t-248.5 52.5h-293v-164h293q139 0 226 -66.5t87 -199.5q0 -131 -87 -199t-226 -68h-293v-164z" />
<glyph unicode="Q" horiz-adv-x="1617" d="M82 717q0 -156 54 -291t152.5 -234.5t231.5 -155.5t289 -56q158 0 290 56t230 155.5t152.5 234.5t54.5 291q0 158 -54.5 292t-152.5 233t-230 155.5t-290 56.5q-156 0 -289 -56.5t-231.5 -155.5t-152.5 -233t-54 -292zM266 717q0 162 71 289t193.5 200.5t278.5 73.5 q158 0 279.5 -73.5t192.5 -200.5t71 -289t-71 -289t-192.5 -200.5t-279.5 -73.5q-156 0 -278.5 73.5t-193.5 200.5t-71 289zM776 614l615 -614h225l-615 614h-225z" />
<glyph unicode="R" horiz-adv-x="1146" d="M164 0h174v1434h-174v-1434zM260 573h293q139 0 248.5 52.5t174 149.5t64.5 229q0 133 -64.5 229t-174 148.5t-248.5 52.5h-293v-154h293q92 0 162.5 -33t110.5 -94t40 -149t-40 -149.5t-110.5 -94.5t-162.5 -33h-293v-154zM420 707l491 -707h215l-512 707h-194z" />
<glyph unicode="S" horiz-adv-x="1122" d="M78 340q47 -94 121.5 -177t174 -133t216.5 -50q86 0 165 28.5t141 81.5t98 129t36 170q0 98 -34.5 169t-89 121t-118 83t-120.5 53q-125 43 -198 87t-103.5 94.5t-30.5 109.5q0 70 53 126t170 56q84 0 142.5 -32.5t99.5 -84t67 -104.5l150 86q-35 76 -96.5 144.5 t-148.5 112.5t-204 44q-121 0 -215 -48t-147 -132t-53 -191q0 -98 37.5 -165.5t97 -113.5t125 -76t118.5 -48q82 -29 155 -64.5t118 -93t45 -153.5q0 -98 -69.5 -162t-184.5 -64q-86 0 -153.5 37t-122 102.5t-103.5 151.5z" />
<glyph unicode="T" horiz-adv-x="952" d="M20 1270h369v-1270h174v1270h369v164h-912v-164z" />
<glyph unicode="U" horiz-adv-x="1282" d="M154 471q0 -106 33.5 -196.5t98 -156t154.5 -102t201 -36.5t201 36.5t154.5 102t98 156t33.5 196.5v963h-174v-963q0 -147 -79.5 -237.5t-233.5 -90.5t-233.5 90.5t-79.5 237.5v963h-174v-963z" />
<glyph unicode="V" horiz-adv-x="1351" d="M10 1434l666 -1506l665 1506h-194l-471 -1110l-471 1110h-195z" />
<glyph unicode="W" horiz-adv-x="2027" d="M20 1434l564 -1506l430 1114l430 -1114l563 1506h-195l-372 -1055l-426 1126l-418 -1126l-381 1055h-195z" />
<glyph unicode="X" horiz-adv-x="1136" d="M20 0h205l348 600l338 -600h205l-454 752l423 682h-204l-306 -531l-299 531h-204l415 -682z" />
<glyph unicode="Y" horiz-adv-x="1148" d="M10 1434l477 -818v-616h175v618l477 816h-195l-371 -664l-368 664h-195z" />
<glyph unicode="Z" horiz-adv-x="1116" d="M31 0h1003v164h-712l753 1270h-1003v-164h712z" />
<glyph unicode="[" d="M205 -451h368v154h-206v1741h206v153h-368v-2048z" />
<glyph unicode="\" horiz-adv-x="1054" d="M31 1434l819 -1434h174l-819 1434h-174z" />
<glyph unicode="]" d="M41 -297v-154h369v2048h-369v-153h207v-1741h-207z" />
<glyph unicode="^" horiz-adv-x="1044" d="M133 942h164l225 330l226 -330h163l-348 512h-82z" />
<glyph unicode="_" horiz-adv-x="1024" d="M0 -160v-112h1024v112h-1024z" />
<glyph unicode="`" horiz-adv-x="768" d="M154 1352l368 -308l92 62l-307 328z" />
<glyph unicode="a" horiz-adv-x="985" d="M61 283q0 -96 45.5 -164t120 -103.5t160.5 -35.5q78 0 157 28.5t133 88t54 149.5l-33 123q0 -74 -35.5 -130.5t-96 -87t-136.5 -30.5q-59 0 -105 19.5t-72 58.5t-26 92q0 51 24.5 88t75 57.5t130.5 20.5q86 0 161.5 -21.5t147.5 -70.5v96q-14 18 -55 48t-110 53.5 t-171 23.5q-174 0 -271.5 -83t-97.5 -220zM123 846l80 -121q23 16 61.5 38.5t95 39t125.5 16.5q43 0 82 -8t69 -26.5t46 -50.5t16 -81v-653h164v676q0 92 -46 155.5t-129 97.5t-193 34q-131 0 -224.5 -39t-146.5 -78z" />
<glyph unicode="b" horiz-adv-x="1167" d="M143 0h164v1597h-164v-1597zM233 471q0 -152 50.5 -262.5t139.5 -169.5t206 -59q129 0 234.5 59t169 169.5t63.5 262.5q0 154 -63.5 263.5t-169 169t-234.5 59.5q-117 0 -206 -59.5t-139.5 -169t-50.5 -263.5zM307 471q0 109 45 184.5t115 114.5t141 39q88 0 161 -39 t117 -114.5t44 -184.5t-44 -184.5t-117 -114.5t-161 -39q-72 0 -141.5 39t-114.5 114.5t-45 184.5z" />
<glyph unicode="c" horiz-adv-x="978" d="M61 471q0 -141 64.5 -253t175.5 -175t248 -63q96 0 187 31.5t141 88.5v205q-20 -45 -69.5 -85t-116 -63.5t-142.5 -23.5q-92 0 -165 44t-115 120t-42 174t42 175t115 120t165 43q76 0 142.5 -23.5t115.5 -62.5t70 -86v205q-49 57 -140.5 89t-187.5 32q-137 0 -248 -63.5 t-175.5 -174.5t-64.5 -254z" />
<glyph unicode="d" horiz-adv-x="1167" d="M72 471q0 -152 63.5 -262.5t170 -169.5t233.5 -59q119 0 207 59t138 169.5t50 262.5q0 154 -50 263.5t-138.5 169t-206.5 59.5q-127 0 -233.5 -59.5t-170 -169t-63.5 -263.5zM238 471q0 109 44 184.5t117.5 114.5t159.5 39q72 0 141.5 -39t114.5 -114.5t45 -184.5 t-45 -184.5t-114.5 -114.5t-141.5 -39q-86 0 -159.5 39t-117.5 114.5t-44 184.5zM860 0h164v1597h-164v-1597z" />
<glyph unicode="e" horiz-adv-x="1054" d="M72 471q0 -145 56 -256t157.5 -173t232.5 -62q152 0 263.5 60t185.5 179l-133 84q-51 -86 -125 -128t-170 -42t-164 41t-102.5 119t-34.5 188q2 109 37.5 183.5t102 114.5t161.5 40q80 0 139 -34.5t93 -96t34 -145.5q0 -14 -6 -36t-13 -32l66 94h-676v-139h805 q0 4 1 19.5t1 29.5q0 150 -53 258.5t-152.5 167t-238.5 58.5t-245 -61.5t-164 -172.5t-58 -258z" />
<glyph unicode="f" horiz-adv-x="585" d="M82 788h471v154h-471v-154zM174 0h164v1270q0 68 12 108.5t34 58t52 17.5q25 0 53 -9t48 -44l90 135q-14 20 -40 38.5t-60.5 31t-80.5 12.5q-86 0 -146 -36t-93 -107.5t-33 -184.5v-1290z" />
<glyph unicode="g" horiz-adv-x="1167" d="M72 471q0 -152 63.5 -262.5t170 -169.5t233.5 -59q119 0 207 59t138 169.5t50 262.5q0 154 -50 263.5t-138.5 169t-206.5 59.5q-127 0 -233.5 -59.5t-170 -169t-63.5 -263.5zM90 -61q0 -121 59.5 -214.5t165 -144.5t242.5 -51q119 0 225.5 55.5t174 165t67.5 270.5v922 h-164v-922q0 -119 -46 -193.5t-115.5 -109t-141.5 -34.5q-92 0 -159.5 35.5t-104.5 94t-37 126.5h-166zM238 471q0 109 44 184.5t117.5 114.5t159.5 39q53 0 106.5 -22.5t97.5 -65.5t70.5 -105.5t26.5 -144.5q0 -109 -45 -184.5t-114.5 -114.5t-141.5 -39q-86 0 -159.5 39 t-117.5 114.5t-44 184.5z" />
<glyph unicode="h" horiz-adv-x="1075" d="M154 0h163v1597h-163v-1597zM264 573h53q0 68 30 121.5t84 84t126 30.5q100 0 150.5 -59.5t50.5 -176.5v-573h164v594q0 123 -40 205t-113 123t-171 41t-173 -51.5t-118 -138.5t-43 -200z" />
<glyph unicode="i" horiz-adv-x="532" d="M154 1331q0 -45 33.5 -78.5t78.5 -33.5q47 0 80 33.5t33 78.5q0 47 -33 80t-80 33q-45 0 -78.5 -33t-33.5 -80zM184 0h164v942h-164v-942z" />
<glyph unicode="j" horiz-adv-x="512" d="M-125 -369q20 -27 47 -45t59.5 -27.5t73.5 -9.5q86 0 147.5 39t93.5 113t32 176v1065h-164v-1044q0 -66 -10.5 -107t-32 -59.5t-55.5 -18.5q-33 0 -59 14.5t-42 39.5zM127 1331q0 -45 33 -77.5t78 -32.5q47 0 78.5 32.5t31.5 77.5q0 47 -31.5 79t-78.5 32q-45 0 -78 -32 t-33 -79z" />
<glyph unicode="k" horiz-adv-x="901" d="M143 0h164v1597h-164v-1597zM246 553l450 -553h205l-450 553l409 389h-205z" />
<glyph unicode="l" horiz-adv-x="471" d="M154 0h163v1597h-163v-1597z" />
<glyph unicode="m" horiz-adv-x="1597" d="M154 0h163v573q0 74 27 127.5t76 81t117 27.5q92 0 136 -57.5t44 -178.5v-573h164v573q0 74 26.5 127.5t75.5 81t117 27.5q92 0 136 -57.5t44 -178.5v-573h164v594q0 117 -36 200t-103.5 126t-163.5 43q-94 0 -168 -44.5t-123 -132.5q-33 84 -103.5 130.5t-168.5 46.5 q-88 0 -153 -39t-108 -119v137h-163v-942z" />
<glyph unicode="n" horiz-adv-x="1075" d="M154 0h163v573q0 70 30 123.5t84 83t126 29.5q98 0 149.5 -59.5t51.5 -176.5v-573h164v594q0 170 -87 269.5t-237 99.5q-92 0 -162.5 -41t-118.5 -127v147h-163v-942z" />
<glyph unicode="o" horiz-adv-x="1118" d="M72 471q0 -141 64.5 -253t175 -175t247.5 -63q139 0 249 63t174.5 175t64.5 253q0 143 -64.5 254t-174.5 174.5t-249 63.5q-137 0 -247.5 -63.5t-175 -174.5t-64.5 -254zM238 471q0 98 42 175t114.5 120t164.5 43t165 -43t115 -120t42 -175t-42 -174t-115 -120t-165 -44 t-164.5 44t-114.5 120t-42 174z" />
<glyph unicode="p" horiz-adv-x="1167" d="M143 -451h164v1393h-164v-1393zM233 471q0 -152 50.5 -262.5t139.5 -169.5t206 -59q129 0 234.5 59t169 169.5t63.5 262.5q0 154 -63.5 263.5t-169 169t-234.5 59.5q-117 0 -206 -59.5t-139.5 -169t-50.5 -263.5zM307 471q0 109 45 184.5t115 114.5t141 39q88 0 161 -39 t117 -114.5t44 -184.5t-44 -184.5t-117 -114.5t-161 -39q-72 0 -141.5 39t-114.5 114.5t-45 184.5z" />
<glyph unicode="q" horiz-adv-x="1167" d="M72 471q0 -152 63.5 -262.5t170 -169.5t233.5 -59q119 0 207 59t138 169.5t50 262.5q0 154 -50 263.5t-138.5 169t-206.5 59.5q-127 0 -233.5 -59.5t-170 -169t-63.5 -263.5zM238 471q0 109 44 184.5t117.5 114.5t159.5 39q72 0 141.5 -39t114.5 -114.5t45 -184.5 t-45 -184.5t-114.5 -114.5t-141.5 -39q-86 0 -159.5 39t-117.5 114.5t-44 184.5zM860 -451h164v1393h-164v-1393z" />
<glyph unicode="r" horiz-adv-x="702" d="M154 0h163v942h-163v-942zM244 573h73q0 68 13.5 121.5t48.5 84t96 30.5q41 0 67.5 -11t59.5 -36l90 135q-37 39 -81 52.5t-95 13.5q-66 0 -129 -51.5t-103 -138.5t-40 -200z" />
<glyph unicode="s" horiz-adv-x="825" d="M63 209q27 -55 79.5 -108.5t128 -87t169.5 -33.5q145 0 234.5 81.5t89.5 204.5q0 84 -40 137.5t-107.5 91t-149.5 70.5q-49 20 -94 43t-74 51.5t-29 65.5q0 47 37 69.5t88 22.5q74 0 132.5 -34.5t97.5 -88.5l131 84q-29 53 -80 94t-117.5 66t-142.5 25t-146.5 -27 t-114.5 -82t-44 -139q0 -82 42 -136.5t104 -88t124 -58.5q55 -20 104.5 -43.5t81 -57.5t31.5 -83q0 -55 -40 -87t-109 -32q-57 0 -105.5 21.5t-85 58.5t-65.5 80z" />
<glyph unicode="t" horiz-adv-x="491" d="M10 788h471v154h-471v-154zM164 0h164v1270h-164v-1270z" />
<glyph unicode="u" horiz-adv-x="1075" d="M154 348q0 -168 88 -268t235 -100q94 0 164 41.5t117 125.5v-147h164v942h-164v-573q0 -70 -30 -123t-84 -83t-126 -30q-98 0 -149.5 61.5t-51.5 174.5v573h-163v-594z" />
<glyph unicode="v" horiz-adv-x="901" d="M0 942l451 -1014l450 1014h-184l-266 -666l-267 666h-184z" />
<glyph unicode="w" horiz-adv-x="1392" d="M10 942l410 -1014l268 686l285 -686l409 1014h-184l-237 -616l-275 688l-256 -684l-235 612h-185z" />
<glyph unicode="x" horiz-adv-x="860" d="M0 0h184l246 356l246 -356h184l-342 485l322 457h-185l-225 -328l-225 328h-185l322 -457z" />
<glyph unicode="y" horiz-adv-x="901" d="M0 942l360 -809l-258 -584h185l614 1393h-184l-291 -729l68 -8l-299 737h-195z" />
<glyph unicode="z" horiz-adv-x="942" d="M31 0h839v154h-542l583 788h-819v-154h522z" />
<glyph unicode="{" horiz-adv-x="636" d="M102 532q47 -14 73 -61t26 -164v-430q0 -100 33.5 -163.5t83 -93.5t94.5 -30h123v144h-72q-45 0 -71.5 31.5t-26.5 70.5v348q0 68 -5.5 143.5t-27 140t-68.5 105.5t-131 41v-41q84 0 131 41t68.5 105.5t27 140.5t5.5 144v348q0 41 26.5 71.5t71.5 30.5h72v143h-123 q-45 0 -94.5 -29.5t-83 -92t-33.5 -164.5v-430q0 -117 -25.5 -163t-73.5 -63v-123z" />
<glyph unicode="|" horiz-adv-x="561" d="M205 -440h151v2048h-151v-2048z" />
<glyph unicode="}" horiz-adv-x="636" d="M121 -266v-144h123q45 0 94 30t83 93.5t34 163.5v430q0 117 26.5 164t71.5 61v123q-45 16 -71.5 62.5t-26.5 163.5v430q0 102 -34 164.5t-83 92t-94 29.5h-123v-143h72q47 0 72.5 -30.5t25.5 -71.5v-348q0 -68 5 -144t26.5 -140.5t68.5 -105.5t131 -41v41q-84 0 -131 -41 t-68.5 -105.5t-26.5 -140t-5 -143.5v-348q0 -39 -25.5 -70.5t-72.5 -31.5h-72z" />
<glyph unicode="~" horiz-adv-x="1177" d="M133 420q0 -27 6 -49l152 -11q-4 12 -6 23.5t-2 22.5q0 53 28.5 82.5t83.5 29.5q27 0 55.5 -7t59.5 -21.5t61 -38.5q66 -49 125.5 -74t110.5 -25q55 0 104.5 22.5t87.5 74.5q27 35 36 74.5t9 70.5q0 16 -2 30.5t-6 26.5l-162 11q6 -14 8.5 -29t2.5 -27q0 -49 -20.5 -74.5 t-65.5 -25.5q-27 0 -65 15.5t-85 49.5q-43 33 -86 54.5t-84 33t-82 11.5q-63 0 -118.5 -27t-96.5 -80q-27 -37 -38 -73.5t-11 -69.5z" />
<glyph unicode="&#xa0;" />
<glyph unicode="&#xa1;" d="M195 850q0 -45 33.5 -79t78.5 -34q47 0 80 34t33 79q0 47 -33 80t-80 33q-45 0 -78.5 -33t-33.5 -80zM205 -502h205l-41 1024h-123z" />
<glyph unicode="&#xa2;" horiz-adv-x="1187" d="M166 471q0 -141 64.5 -253t175 -175t247.5 -63q96 0 187.5 31.5t140.5 88.5v205q-33 -70 -123 -121t-205 -51q-92 0 -164.5 44t-114.5 120t-42 174t42 175t114.5 120t164.5 43q115 0 205 -51t123 -121v205q-49 57 -140 89t-188 32q-137 0 -247.5 -63.5t-175 -174.5 t-64.5 -254zM573 78v-307h132v307h-132zM573 877h132v307h-132v-307z" />
<glyph unicode="&#xa3;" horiz-adv-x="1187" d="M131 0h928v164h-744l-4 -62q57 16 110.5 55.5t96.5 97.5t67.5 131t24.5 155q0 70 -19.5 121t-48 94t-58 87t-49 97t-19.5 125q0 78 34.5 126t90 69.5t116.5 21.5q66 0 115 -25.5t81 -68.5t49.5 -97.5t19.5 -109.5l145 59q-4 61 -30.5 133t-76 135.5t-125 104.5t-178.5 41 q-121 0 -216 -47t-149 -135t-54 -211q0 -84 20.5 -146.5t52 -112.5t62 -95t51 -92.5t20.5 -104.5q0 -90 -36.5 -167t-106.5 -158t-170 -185zM137 604h737v154h-737v-154z" />
<glyph unicode="&#xa4;" horiz-adv-x="1187" d="M76 199l102 -103l191 193l-101 100zM76 1030l192 -190l101 100l-191 193zM106 614q0 -141 65 -252.5t175.5 -175t247.5 -63.5q139 0 248.5 63.5t174 175t64.5 252.5q0 143 -64.5 254t-174 174.5t-248.5 63.5q-137 0 -247.5 -63.5t-175.5 -174.5t-65 -254zM272 614 q0 98 42 175t115 120t165 43t164.5 -43t114.5 -119.5t42 -175.5q0 -98 -42 -175t-114.5 -120t-164.5 -43t-165 43t-115 120t-42 175zM817 289l193 -193l100 103l-190 190zM817 940l103 -100l190 190l-100 103z" />
<glyph unicode="&#xa5;" horiz-adv-x="1187" d="M31 1434l477 -813v-621h176v627l473 807h-192l-371 -664l-369 664h-194zM92 287h993v153h-993v-153zM92 594h993v154h-993v-154z" />
<glyph unicode="&#xa6;" horiz-adv-x="561" d="M205 10h151v492h-151v-492zM205 932h151v491h-151v-491z" />
<glyph unicode="&#xa7;" horiz-adv-x="835" d="M61 252q14 -76 68.5 -138.5t134.5 -98t166 -35.5q76 0 139.5 16t109.5 51t70.5 89t24.5 130q0 70 -37 122t-96 91t-127 66q-39 16 -80 32.5t-74.5 38t-54 55.5t-20.5 85q0 43 19.5 73.5t60.5 55t102 45.5v53q-88 0 -152.5 -16.5t-107.5 -49t-64.5 -77.5t-21.5 -105 q0 -78 41 -135t103.5 -95t125.5 -65q55 -20 103.5 -44.5t79 -58.5t30.5 -85q0 -41 -19.5 -67.5t-56 -39t-88.5 -12.5q-57 0 -108 25.5t-87 70t-48 101.5zM121 1206q0 -59 23.5 -102t63.5 -75t87 -55.5t96 -41.5q55 -20 103.5 -45t79 -58.5t30.5 -85.5q0 -41 -22.5 -83 t-61.5 -69.5t-90 -27.5v-71q76 0 139.5 13t109.5 44t70.5 82t24.5 127q0 70 -37 122t-96 91t-127 65q-39 16 -80 35t-74.5 39t-54 45t-20.5 51q0 33 18.5 52.5t51 29.5t73.5 10q39 0 79 -12t74 -36.5t54 -63.5l131 84q-18 53 -70.5 94t-123 65.5t-146.5 24.5t-145.5 -29.5 t-114.5 -85t-45 -133.5z" />
<glyph unicode="&#xa8;" horiz-adv-x="962" d="M164 1352q0 -45 33.5 -79t78.5 -34q47 0 80 34t33 79q0 47 -32.5 79.5t-80.5 32.5q-45 0 -78.5 -32.5t-33.5 -79.5zM573 1352q0 -45 34 -79t79 -34q47 0 80 34t33 79q0 47 -33 79.5t-80 32.5q-45 0 -79 -32.5t-34 -79.5z" />
<glyph unicode="&#xa9;" horiz-adv-x="1638" d="M82 717q0 -160 56.5 -295t155.5 -234.5t234.5 -153.5t290.5 -54q158 0 292 54t233.5 153.5t155.5 234.5t56 295t-56 295t-155.5 234.5t-233.5 153.5t-292 54q-156 0 -291 -54t-234 -153.5t-155.5 -234.5t-56.5 -295zM195 717q0 137 47 252.5t132 201.5t198.5 133.5 t246.5 47.5t247 -47.5t199 -133.5t132 -201.5t47 -252.5t-47 -253t-132 -202t-199 -133t-247 -47t-246.5 47t-198.5 133t-132 202t-47 253zM379 717q0 -127 58.5 -227.5t155.5 -158t216 -57.5q94 0 158.5 24t117.5 71v137q-45 -57 -115.5 -92t-160.5 -35t-163 43t-115 119 t-42 176t42 176t115 119t163 43t160.5 -35t115.5 -92v137q-53 47 -117.5 70.5t-158.5 23.5q-119 0 -216 -57.5t-155.5 -156.5t-58.5 -228z" />
<glyph unicode="&#xaa;" horiz-adv-x="487" d="M41 1090q0 -76 50 -117t114 -41q74 0 125 38t51 105l-16 51q0 -66 -43 -93t-97 -27q-57 0 -78.5 25.5t-21.5 58.5q0 43 32.5 73.5t88.5 30.5q45 0 82 -12.5t69 -36.5v49q-10 12 -49 36.5t-106 24.5q-76 0 -138.5 -46t-62.5 -119zM86 1386l39 -63q16 12 53 30.5t88 18.5 q39 0 69 -18.5t30 -53.5v-358h81v358q0 68 -50 106t-130 38q-63 0 -108 -19.5t-72 -38.5z" />
<glyph unicode="&#xab;" horiz-adv-x="1044" d="M82 522l389 -481l102 92l-307 397l307 381l-102 93zM410 522l389 -481l102 92l-307 397l307 381l-102 93z" />
<glyph unicode="&#xac;" horiz-adv-x="1269" d="M133 614h850v-256h154v410h-1004v-154z" />
<glyph unicode="&#xad;" horiz-adv-x="430" d="M10 410h410v153h-410v-153z" />
<glyph unicode="&#xae;" horiz-adv-x="1638" d="M82 717q0 -160 56.5 -295t155.5 -234.5t234.5 -153.5t290.5 -54q158 0 292 54t233.5 153.5t155.5 234.5t56 295t-56 295t-155.5 234.5t-233.5 153.5t-292 54q-156 0 -291 -54t-234 -153.5t-155.5 -234.5t-56.5 -295zM195 717q0 137 47 252.5t132 201.5t198.5 133.5 t246.5 47.5t247 -47.5t199 -133.5t132 -201.5t47 -252.5t-47 -253t-132 -202t-199 -133t-247 -47t-246.5 47t-198.5 133t-132 202t-47 253zM561 307h105v860h-105v-860zM618 651h177q125 0 208.5 70t83.5 188q0 119 -83.5 188.5t-208.5 69.5h-177v-92h177q84 0 136 -43 t52 -123t-52 -123t-136 -43h-177v-92zM715 731l295 -424h129l-308 424h-116z" />
<glyph unicode="&#xaf;" horiz-adv-x="1044" d="M164 1229h717v153h-717v-153z" />
<glyph unicode="&#xb0;" horiz-adv-x="569" d="M41 1229q0 -106 69.5 -176t174.5 -70q104 0 173.5 69.5t69.5 176.5q0 109 -69.5 177.5t-173.5 68.5t-174 -68.5t-70 -177.5zM123 1229q0 74 46 121t116 47t115.5 -47t45.5 -121t-46 -121t-115 -47q-70 0 -116 47t-46 121z" />
<glyph unicode="&#xb1;" horiz-adv-x="1259" d="M133 0h993v164h-993v-164zM133 707h993v163h-993v-163zM543 307h174v963h-174v-963z" />
<glyph unicode="&#xb2;" horiz-adv-x="708" d="M51 578h606v98h-391l273 278q51 53 82.5 112.5t31.5 125.5q0 57 -26.5 117.5t-84 101.5t-151.5 41q-88 0 -153.5 -39t-101.5 -108.5t-36 -161.5h105q0 98 52 154.5t134 56.5q53 0 87 -22.5t51.5 -57.5t17.5 -74q0 -51 -23.5 -97t-66.5 -91z" />
<glyph unicode="&#xb3;" horiz-adv-x="638" d="M51 801q0 -66 34 -121t96.5 -87t144.5 -32q115 0 191.5 65.5t76.5 174.5q0 86 -42 138t-110.5 76.5t-152.5 24.5v-67q55 0 100 -17.5t71.5 -53.5t26.5 -89q0 -70 -44 -112t-117 -42q-74 0 -121 40t-47 102h-107zM88 1221h100q0 57 42 94t102 37q66 0 98.5 -38t32.5 -100 q0 -41 -20.5 -74.5t-59.5 -54t-94 -20.5v-68q84 0 146.5 30t98 80t35.5 110q0 90 -63.5 159.5t-173.5 69.5q-106 0 -175 -62.5t-69 -162.5z" />
<glyph unicode="&#xb4;" horiz-adv-x="768" d="M154 1106l92 -62l368 308l-153 82z" />
<glyph unicode="&#xb5;" horiz-adv-x="1075" d="M154 -655h163v671q35 -18 75 -27t85 -9q86 0 159 38.5t122 108.5v-127h164v942h-164v-573q0 -68 -30 -121t-84 -84t-126 -31q-100 0 -150.5 59.5t-50.5 176.5v573h-163v-1597z" />
<glyph unicode="&#xb6;" horiz-adv-x="1183" d="M123 993q0 -141 63.5 -239.5t170 -149.5t233.5 -51v-1004h143v1751h185v-1751h143v1885h-471q-127 0 -233.5 -51.5t-170 -148.5t-63.5 -241z" />
<glyph unicode="&#xb7;" d="M195 492q0 -45 33.5 -79t78.5 -34q47 0 80 33.5t33 79.5q0 47 -33 79.5t-80 32.5q-45 0 -78.5 -32.5t-33.5 -79.5z" />
<glyph unicode="&#xb8;" horiz-adv-x="716" d="M162 -373q43 -43 84 -60.5t98 -17.5t106.5 22.5t81 66t31.5 104.5q0 51 -23.5 84t-57 50.5t-68.5 17.5h-9.5h-9.5l131 229h-125l-174 -344q33 23 68 30t49 7q53 0 77.5 -18.5t24.5 -55.5t-24.5 -59.5t-77.5 -22.5q-39 0 -62.5 12.5t-52.5 36.5z" />
<glyph unicode="&#xb9;" horiz-adv-x="962" d="M311 1251l191 58v-748h104v873l-295 -74v-109z" />
<glyph unicode="&#xba;" horiz-adv-x="569" d="M41 1188q0 -106 69.5 -176t174.5 -70q104 0 173.5 69.5t69.5 176.5q0 109 -69.5 177.5t-173.5 68.5t-174 -68.5t-70 -177.5zM123 1188q0 74 46 121t116 47t115.5 -47t45.5 -121t-46 -121t-115 -47q-70 0 -116 47t-46 121z" />
<glyph unicode="&#xbb;" horiz-adv-x="1044" d="M143 133l103 -92l389 481l-389 482l-103 -93l308 -397zM471 133l102 -92l390 481l-390 482l-102 -93l307 -397z" />
<glyph unicode="&#xbc;" horiz-adv-x="1544" d="M61 1251l191 58v-748h104v873l-295 -74v-109zM201 0h133l1065 1434h-133zM815 172h655v92h-176h-20h-373zM815 172h111l305 457v-400v-12v-217h104v860h-43z" />
<glyph unicode="&#xbd;" horiz-adv-x="1677" d="M61 1251l191 58v-748h104v873l-295 -74v-109zM201 0h133l1065 1434h-133zM1010 4h606v98h-391l272 279q51 53 83 112.5t32 124.5q0 57 -26.5 118t-84 102t-151.5 41q-88 0 -154 -39t-101.5 -108.5t-35.5 -162.5h104q0 98 52.5 154.5t134.5 56.5q53 0 86.5 -22.5t51 -57 t17.5 -73.5q0 -51 -23.5 -97.5t-66.5 -91.5z" />
<glyph unicode="&#xbe;" horiz-adv-x="1679" d="M61 801q0 -66 34 -121t96.5 -87t144.5 -32q115 0 191.5 65.5t76.5 174.5q0 86 -42 138t-110.5 76.5t-152.5 24.5v-67q55 0 100 -17.5t72 -53.5t27 -89q0 -70 -44 -112t-118 -42t-121 40t-47 102h-107zM98 1221h101q0 57 42 94t101 37q66 0 98.5 -38t32.5 -100 q0 -41 -20.5 -74.5t-59.5 -54t-94 -20.5v-68q84 0 146.5 30t98.5 80t36 110q0 90 -63.5 159.5t-174.5 69.5q-106 0 -175 -62.5t-69 -162.5zM338 0h133l1065 1434h-133zM952 172h656v92h-176h-21h-373zM952 172h111l305 457v-400v-12v-217h105v860h-43z" />
<glyph unicode="&#xbf;" horiz-adv-x="1140" d="M123 410q0 -92 33.5 -170t94 -136.5t141.5 -91t177 -32.5q123 0 205 29.5t139.5 83.5t104.5 126l-133 84q-47 -76 -120 -123t-175 -47q-92 0 -160 33t-104.5 94.5t-36.5 149.5q0 78 47 150.5t135 119.5t211 47h53l-41 358h-123l-14 -245q-113 -6 -212 -64.5t-160.5 -153 t-61.5 -212.5zM516 1352q0 -45 34 -79t79 -34q47 0 79.5 34t32.5 79q0 47 -32.5 79.5t-79.5 32.5q-45 0 -79 -32.5t-34 -79.5z" />
<glyph unicode="&#xc0;" horiz-adv-x="1351" d="M10 0h195l213 504l16 37l242 569l246 -578l16 -40l209 -492h194l-665 1505zM301 430h758l-62 164h-635zM410 1935l368 -307l92 62l-307 327z" />
<glyph unicode="&#xc1;" horiz-adv-x="1351" d="M10 0h195l213 504l16 37l242 569l246 -578l16 -40l209 -492h194l-665 1505zM301 430h758l-62 164h-635zM481 1690l92 -62l369 307l-154 82z" />
<glyph unicode="&#xc2;" horiz-adv-x="1351" d="M10 0h195l213 504l16 37l242 569l246 -578l16 -40l209 -492h194l-665 1505zM301 430h758l-62 164h-635zM348 1628l103 -82l225 195l225 -195l103 82l-328 287z" />
<glyph unicode="&#xc3;" horiz-adv-x="1351" d="M10 0h195l213 504l16 37l242 569l246 -578l16 -40l209 -492h194l-665 1505zM301 430h758l-62 164h-635zM338 1663l108 -76q0 16 8.5 41t31 44.5t63.5 19.5q47 0 81 -23.5t72.5 -48.5t94.5 -25q51 0 94 21.5t74.5 56.5t48.5 72l-94 88q-31 -49 -58.5 -73.5t-56.5 -24.5 q-41 0 -67.5 14t-50 33.5t-55.5 34t-81 14.5q-45 0 -91 -21.5t-79 -58.5t-43 -88z" />
<glyph unicode="&#xc4;" horiz-adv-x="1351" d="M10 0h195l213 504l16 37l242 569l246 -578l16 -40l209 -492h194l-665 1505zM301 430h758l-62 164h-635zM358 1741q0 -45 34 -79t79 -34q47 0 80 34t33 79q0 47 -33 79.5t-80 32.5q-45 0 -79 -32.5t-34 -79.5zM768 1741q0 -45 34 -79t79 -34q47 0 79.5 34t32.5 79 q0 47 -32.5 79.5t-79.5 32.5q-45 0 -79 -32.5t-34 -79.5z" />
<glyph unicode="&#xc5;" horiz-adv-x="1351" d="M10 0h195l213 504l16 37l242 569l246 -578l16 -40l209 -492h194l-665 1505zM301 430h758l-62 164h-635zM467 1634q0 -92 64.5 -148t144.5 -56t144.5 56t64.5 148t-64.5 148.5t-144.5 56.5t-144.5 -56.5t-64.5 -148.5zM571 1634q0 51 33 80t72 29t71.5 -28.5t32.5 -80.5 q0 -51 -32.5 -79.5t-71.5 -28.5t-72 28.5t-33 79.5z" />
<glyph unicode="&#xc6;" horiz-adv-x="1966" d="M10 0h195l827 1352l-141 82zM444 430h615v164h-615v-164zM891 1434l225 -164h707v164h-932zM1004 0h174v1434h-174v-1434zM1100 0h723v164h-723v-164zM1100 696h682v164h-682v-164z" />
<glyph unicode="&#xc7;" horiz-adv-x="1402" d="M82 717q0 -160 55.5 -295t153.5 -234.5t228 -153.5t280 -54q158 0 264 38.5t197 118.5v230q-49 -63 -119 -111.5t-155 -75t-187 -26.5q-141 0 -262 71.5t-196 198.5t-75 293q0 168 75 294t195.5 197.5t262.5 71.5q102 0 187 -26.5t154.5 -75t119.5 -111.5v229 q-90 80 -197 119t-264 39q-150 0 -280 -54t-228 -153.5t-153.5 -234.5t-55.5 -295zM537 -375q43 -43 85 -60.5t99 -17.5t106.5 22.5t80 65.5t30.5 105q0 51 -22.5 84t-56.5 50t-68 17h-9.5h-9.5l129 230h-123l-176 -344q33 23 69 30t50 7q53 0 77.5 -18.5t24.5 -55.5 t-24.5 -59.5t-77.5 -22.5q-39 0 -62.5 12.5t-52.5 36.5z" />
<glyph unicode="&#xc8;" horiz-adv-x="1126" d="M164 0h174v1434h-174v-1434zM260 0h723v164h-723v-164zM260 696h682v164h-682v-164zM260 1270h723v164h-723v-164zM307 1884l369 -307l92 61l-307 328z" />
<glyph unicode="&#xc9;" horiz-adv-x="1126" d="M164 0h174v1434h-174v-1434zM260 0h723v164h-723v-164zM260 696h682v164h-682v-164zM260 1270h723v164h-723v-164zM379 1638l92 -61l369 307l-154 82z" />
<glyph unicode="&#xca;" horiz-adv-x="1126" d="M164 0h174v1434h-174v-1434zM260 0h723v164h-723v-164zM260 696h682v164h-682v-164zM260 1270h723v164h-723v-164zM266 1659l103 -82l225 195l225 -195l103 82l-328 287z" />
<glyph unicode="&#xcb;" horiz-adv-x="1126" d="M164 0h174v1434h-174v-1434zM260 0h723v164h-723v-164zM260 696h682v164h-682v-164zM260 1270h723v164h-723v-164zM276 1731q0 -45 34 -79t79 -34q47 0 80 34t33 79q0 47 -33 79.5t-80 32.5q-45 0 -79 -32.5t-34 -79.5zM686 1731q0 -45 34 -79t79 -34q47 0 79.5 34 t32.5 79q0 47 -32.5 79.5t-79.5 32.5q-45 0 -79 -32.5t-34 -79.5z" />
<glyph unicode="&#xcc;" horiz-adv-x="501" d="M-16 1884l368 -307l94 61l-307 328zM164 0h174v1434h-174v-1434z" />
<glyph unicode="&#xcd;" horiz-adv-x="501" d="M57 1638l90 -61l369 307l-151 82zM164 0h174v1434h-174v-1434z" />
<glyph unicode="&#xce;" horiz-adv-x="501" d="M-78 1659l103 -82l225 195l225 -195l103 82l-328 287zM164 0h174v1434h-174v-1434z" />
<glyph unicode="&#xcf;" horiz-adv-x="501" d="M-66 1690q0 -45 33 -79t78 -34q47 0 81 34t34 79q0 47 -34 79.5t-81 32.5q-45 0 -78 -32.5t-33 -79.5zM164 0h174v1434h-174v-1434zM344 1690q0 -45 33 -79t78 -34q47 0 80.5 34t33.5 79q0 47 -33.5 79.5t-80.5 32.5q-45 0 -78 -32.5t-33 -79.5z" />
<glyph unicode="&#xd0;" horiz-adv-x="1392" d="M10 635h615v153h-615v-153zM164 0h174v1434h-174v-1434zM260 0h334q209 0 370.5 90t254 251t92.5 376t-92.5 375.5t-254 251t-370.5 90.5h-334v-174h334q121 0 221 -38t172 -109t111 -171t39 -225t-39 -225.5t-111 -171t-172 -108.5t-221 -38h-334v-174z" />
<glyph unicode="&#xd1;" horiz-adv-x="1587" d="M164 0h174v1067l1085 -1139v1506h-174v-1067l-1085 1138v-1505zM440 1622l109 -76q0 16 8 41t30.5 44.5t63.5 19.5q47 0 81 -23.5t73 -48.5t94 -25q51 0 94 21.5t75 56.5t48 72l-94 88q-31 -49 -58.5 -73.5t-56.5 -24.5q-41 0 -67.5 14t-50 33.5t-55.5 34t-81 14.5 q-45 0 -91 -21.5t-79 -58.5t-43 -88z" />
<glyph unicode="&#xd2;" horiz-adv-x="1617" d="M82 717q0 -156 54 -291t152.5 -234.5t231.5 -155.5t289 -56q158 0 290 56t230 155.5t152.5 234.5t54.5 291q0 158 -54.5 292t-152.5 233t-230 155.5t-290 56.5q-156 0 -289 -56.5t-231.5 -155.5t-152.5 -233t-54 -292zM266 717q0 162 71 289t193.5 200.5t278.5 73.5 q158 0 279.5 -73.5t192.5 -200.5t71 -289t-71 -289t-192.5 -200.5t-279.5 -73.5q-156 0 -278.5 73.5t-193.5 200.5t-71 289zM563 1884l369 -307l92 61l-307 328z" />
<glyph unicode="&#xd3;" horiz-adv-x="1617" d="M82 717q0 -156 54 -291t152.5 -234.5t231.5 -155.5t289 -56q158 0 290 56t230 155.5t152.5 234.5t54.5 291q0 158 -54.5 292t-152.5 233t-230 155.5t-290 56.5q-156 0 -289 -56.5t-231.5 -155.5t-152.5 -233t-54 -292zM266 717q0 162 71 289t193.5 200.5t278.5 73.5 q158 0 279.5 -73.5t192.5 -200.5t71 -289t-71 -289t-192.5 -200.5t-279.5 -73.5q-156 0 -278.5 73.5t-193.5 200.5t-71 289zM594 1638l92 -61l369 307l-154 82z" />
<glyph unicode="&#xd4;" horiz-adv-x="1617" d="M82 717q0 -156 54 -291t152.5 -234.5t231.5 -155.5t289 -56q158 0 290 56t230 155.5t152.5 234.5t54.5 291q0 158 -54.5 292t-152.5 233t-230 155.5t-290 56.5q-156 0 -289 -56.5t-231.5 -155.5t-152.5 -233t-54 -292zM266 717q0 162 71 289t193.5 200.5t278.5 73.5 q158 0 279.5 -73.5t192.5 -200.5t71 -289t-71 -289t-192.5 -200.5t-279.5 -73.5q-156 0 -278.5 73.5t-193.5 200.5t-71 289zM481 1659l103 -82l225 195l225 -195l103 82l-328 287z" />
<glyph unicode="&#xd5;" horiz-adv-x="1617" d="M82 717q0 -156 54 -291t152.5 -234.5t231.5 -155.5t289 -56q158 0 290 56t230 155.5t152.5 234.5t54.5 291q0 158 -54.5 292t-152.5 233t-230 155.5t-290 56.5q-156 0 -289 -56.5t-231.5 -155.5t-152.5 -233t-54 -292zM266 717q0 162 71 289t193.5 200.5t278.5 73.5 q158 0 279.5 -73.5t192.5 -200.5t71 -289t-71 -289t-192.5 -200.5t-279.5 -73.5q-156 0 -278.5 73.5t-193.5 200.5t-71 289zM471 1653l109 -76q0 16 8 40.5t30.5 44t63.5 19.5q47 0 81 -23.5t72.5 -48t94.5 -24.5q51 0 94 21.5t74.5 56.5t48.5 72l-94 88q-31 -49 -58.5 -74 t-56.5 -25q-41 0 -67.5 14.5t-50 34t-55.5 34t-81 14.5q-45 0 -91 -21.5t-79 -58.5t-43 -88z" />
<glyph unicode="&#xd6;" horiz-adv-x="1617" d="M82 717q0 -156 54 -291t152.5 -234.5t231.5 -155.5t289 -56q158 0 290 56t230 155.5t152.5 234.5t54.5 291q0 158 -54.5 292t-152.5 233t-230 155.5t-290 56.5q-156 0 -289 -56.5t-231.5 -155.5t-152.5 -233t-54 -292zM266 717q0 162 71 289t193.5 200.5t278.5 73.5 q158 0 279.5 -73.5t192.5 -200.5t71 -289t-71 -289t-192.5 -200.5t-279.5 -73.5q-156 0 -278.5 73.5t-193.5 200.5t-71 289zM492 1690q0 -45 33.5 -79t78.5 -34q47 0 80 34t33 79q0 47 -33 79.5t-80 32.5q-45 0 -78.5 -32.5t-33.5 -79.5zM901 1690q0 -45 34 -79t79 -34 q47 0 79.5 34t32.5 79q0 47 -32.5 79.5t-79.5 32.5q-45 0 -79 -32.5t-34 -79.5z" />
<glyph unicode="&#xd7;" horiz-adv-x="1220" d="M133 160l115 -115l362 373l363 -373l114 115l-372 362l372 363l-114 114l-363 -372l-362 372l-115 -114l373 -363z" />
<glyph unicode="&#xd8;" horiz-adv-x="1617" d="M82 -20l119 -82l1329 1556l-121 82zM82 717q0 -156 54 -291t152.5 -234.5t231.5 -155.5t289 -56q158 0 290 56t230 155.5t152.5 234.5t54.5 291q0 158 -54.5 292t-152.5 233t-230 155.5t-290 56.5q-156 0 -289 -56.5t-231.5 -155.5t-152.5 -233t-54 -292zM266 717 q0 162 71 289t193.5 200.5t278.5 73.5q158 0 279.5 -73.5t192.5 -200.5t71 -289t-71 -289t-192.5 -200.5t-279.5 -73.5q-156 0 -278.5 73.5t-193.5 200.5t-71 289z" />
<glyph unicode="&#xd9;" horiz-adv-x="1282" d="M154 471q0 -106 33.5 -196.5t98 -156t154.5 -102t201 -36.5t201 36.5t154.5 102t98 156t33.5 196.5v963h-174v-963q0 -147 -79.5 -237.5t-233.5 -90.5t-233.5 90.5t-79.5 237.5v963h-174v-963zM375 1884l368 -307l93 61l-308 328z" />
<glyph unicode="&#xda;" horiz-adv-x="1282" d="M154 471q0 -106 33.5 -196.5t98 -156t154.5 -102t201 -36.5t201 36.5t154.5 102t98 156t33.5 196.5v963h-174v-963q0 -147 -79.5 -237.5t-233.5 -90.5t-233.5 90.5t-79.5 237.5v963h-174v-963zM446 1638l93 -61l368 307l-153 82z" />
<glyph unicode="&#xdb;" horiz-adv-x="1282" d="M154 471q0 -106 33.5 -196.5t98 -156t154.5 -102t201 -36.5t201 36.5t154.5 102t98 156t33.5 196.5v963h-174v-963q0 -147 -79.5 -237.5t-233.5 -90.5t-233.5 90.5t-79.5 237.5v963h-174v-963zM313 1659l103 -82l225 195l225 -195l103 82l-328 287z" />
<glyph unicode="&#xdc;" horiz-adv-x="1282" d="M154 471q0 -106 33.5 -196.5t98 -156t154.5 -102t201 -36.5t201 36.5t154.5 102t98 156t33.5 196.5v963h-174v-963q0 -147 -79.5 -237.5t-233.5 -90.5t-233.5 90.5t-79.5 237.5v963h-174v-963zM324 1690q0 -45 33.5 -79t78.5 -34q47 0 80 34t33 79q0 47 -33 79.5 t-80 32.5q-45 0 -78.5 -32.5t-33.5 -79.5zM733 1690q0 -45 34 -79t79 -34q47 0 79.5 34t32.5 79q0 47 -32.5 79.5t-79.5 32.5q-45 0 -79 -32.5t-34 -79.5z" />
<glyph unicode="&#xdd;" horiz-adv-x="1148" d="M10 1434l477 -818v-616h175v618l477 816h-195l-371 -664l-368 664h-195zM381 1638l90 -61l369 307l-152 82z" />
<glyph unicode="&#xde;" horiz-adv-x="1126" d="M164 0h174v1434h-174v-1434zM260 287h293q139 0 248.5 52t174 149.5t64.5 228.5q0 133 -64.5 229t-174 148.5t-248.5 52.5h-293v-164h293q92 0 162.5 -29.5t110.5 -89t40 -147.5t-40 -147.5t-110.5 -89t-162.5 -29.5h-293v-164z" />
<glyph unicode="&#xdf;" horiz-adv-x="1157" d="M147 -4h166l-2 1208q0 96 35 156.5t95.5 88.5t138.5 28q61 0 113 -16.5t85 -54.5t33 -106q0 -63 -23.5 -112t-58.5 -91t-69.5 -83t-58 -87t-23.5 -104q0 -57 25.5 -100t64.5 -76t84 -62.5t83.5 -61t64.5 -73.5t26 -100q0 -59 -28 -109.5t-76 -80t-109 -29.5 q-39 0 -77 13.5t-72 38t-64 55.5l-101 -123q37 -41 83 -73t100.5 -49.5t117.5 -17.5q84 0 156 31t126 85t85 127t31 155q0 74 -24.5 126t-63.5 90t-82 66.5t-82 53t-63.5 52t-24.5 62.5q0 51 22.5 91t56 77t67.5 80t56.5 101.5t22.5 142.5q0 109 -48 177.5t-133 101 t-196 32.5q-139 0 -242.5 -49t-160 -135t-56.5 -197v-1249z" />
<glyph unicode="&#xe0;" horiz-adv-x="993" d="M61 256q0 -86 40 -147.5t114 -95t170 -33.5q98 0 178 33.5t128 98t48 154.5l-32 103q0 -88 -36 -141.5t-99.5 -78t-145.5 -24.5q-66 0 -110 17.5t-66.5 51t-22.5 82.5q0 57 27 98.5t81 64t136 22.5q90 0 162 -23.5t141 -72.5v96q-14 18 -53 48t-103.5 53.5t-154.5 23.5 q-113 0 -204 -37t-144.5 -109.5t-53.5 -183.5zM147 846l80 -125q23 16 63 39.5t95 41t123 17.5q78 0 138.5 -35.5t60.5 -107.5v-676h163v676q0 92 -46 155.5t-127 97.5t-189 34q-127 0 -217 -39t-144 -78zM180 1393l369 -308l92 62l-307 328z" />
<glyph unicode="&#xe1;" horiz-adv-x="993" d="M61 256q0 -86 40 -147.5t114 -95t170 -33.5q98 0 178 33.5t128 98t48 154.5l-32 103q0 -88 -36 -141.5t-99.5 -78t-145.5 -24.5q-66 0 -110 17.5t-66.5 51t-22.5 82.5q0 57 27 98.5t81 64t136 22.5q90 0 162 -23.5t141 -72.5v96q-14 18 -53 48t-103.5 53.5t-154.5 23.5 q-113 0 -204 -37t-144.5 -109.5t-53.5 -183.5zM147 846l80 -125q23 16 63 39.5t95 41t123 17.5q78 0 138.5 -35.5t60.5 -107.5v-676h163v676q0 92 -46 155.5t-127 97.5t-189 34q-127 0 -217 -39t-144 -78zM375 1147l92 -62l369 308l-154 82z" />
<glyph unicode="&#xe2;" horiz-adv-x="993" d="M61 256q0 -86 40 -147.5t114 -95t170 -33.5q98 0 178 33.5t128 98t48 154.5l-32 103q0 -88 -36 -141.5t-99.5 -78t-145.5 -24.5q-66 0 -110 17.5t-66.5 51t-22.5 82.5q0 57 27 98.5t81 64t136 22.5q90 0 162 -23.5t141 -72.5v96q-14 18 -53 48t-103.5 53.5t-154.5 23.5 q-113 0 -204 -37t-144.5 -109.5t-53.5 -183.5zM147 846l80 -125q23 16 63 39.5t95 41t123 17.5q78 0 138.5 -35.5t60.5 -107.5v-676h163v676q0 92 -46 155.5t-127 97.5t-189 34q-127 0 -217 -39t-144 -78zM180 1167l103 -82l225 195l225 -195l103 82l-328 287z" />
<glyph unicode="&#xe3;" horiz-adv-x="993" d="M61 256q0 -86 40 -147.5t114 -95t170 -33.5q98 0 178 33.5t128 98t48 154.5l-32 103q0 -88 -36 -141.5t-99.5 -78t-145.5 -24.5q-66 0 -110 17.5t-66.5 51t-22.5 82.5q0 57 27 98.5t81 64t136 22.5q90 0 162 -23.5t141 -72.5v96q-14 18 -53 48t-103.5 53.5t-154.5 23.5 q-113 0 -204 -37t-144.5 -109.5t-53.5 -183.5zM147 846l80 -125q23 16 63 39.5t95 41t123 17.5q78 0 138.5 -35.5t60.5 -107.5v-676h163v676q0 92 -46 155.5t-127 97.5t-189 34q-127 0 -217 -39t-144 -78zM170 1161l109 -76q0 16 8 41t30.5 44.5t63.5 19.5q47 0 81 -23.5 t72.5 -48t94.5 -24.5q51 0 94 21.5t74.5 56t48.5 71.5l-94 88q-31 -49 -58.5 -73.5t-56.5 -24.5q-41 0 -67.5 14.5t-50 33.5t-55.5 33.5t-81 14.5q-45 0 -91 -21.5t-79 -58.5t-43 -88z" />
<glyph unicode="&#xe4;" horiz-adv-x="993" d="M61 256q0 -86 40 -147.5t114 -95t170 -33.5q98 0 178 33.5t128 98t48 154.5l-32 103q0 -88 -36 -141.5t-99.5 -78t-145.5 -24.5q-66 0 -110 17.5t-66.5 51t-22.5 82.5q0 57 27 98.5t81 64t136 22.5q90 0 162 -23.5t141 -72.5v96q-14 18 -53 48t-103.5 53.5t-154.5 23.5 q-113 0 -204 -37t-144.5 -109.5t-53.5 -183.5zM147 846l80 -125q23 16 63 39.5t95 41t123 17.5q78 0 138.5 -35.5t60.5 -107.5v-676h163v676q0 92 -46 155.5t-127 97.5t-189 34q-127 0 -217 -39t-144 -78zM190 1198q0 -45 34 -79t79 -34q47 0 80 34t33 79q0 47 -33 80 t-80 33q-45 0 -79 -33t-34 -80zM600 1198q0 -45 34 -79t79 -34q47 0 79.5 34t32.5 79q0 47 -32.5 80t-79.5 33q-45 0 -79 -33t-34 -80z" />
<glyph unicode="&#xe5;" horiz-adv-x="993" d="M61 256q0 -86 40 -147.5t114 -95t170 -33.5q98 0 178 33.5t128 98t48 154.5l-32 103q0 -88 -36 -141.5t-99.5 -78t-145.5 -24.5q-66 0 -110 17.5t-66.5 51t-22.5 82.5q0 57 27 98.5t81 64t136 22.5q90 0 162 -23.5t141 -72.5v96q-14 18 -53 48t-103.5 53.5t-154.5 23.5 q-113 0 -204 -37t-144.5 -109.5t-53.5 -183.5zM147 846l80 -125q23 16 63 39.5t95 41t123 17.5q78 0 138.5 -35.5t60.5 -107.5v-676h163v676q0 92 -46 155.5t-127 97.5t-189 34q-127 0 -217 -39t-144 -78zM299 1290q0 -92 64.5 -148.5t144.5 -56.5t144.5 56.5t64.5 148.5 t-64.5 148.5t-144.5 56.5t-144.5 -56.5t-64.5 -148.5zM403 1290q0 51 33 80t72 29t71.5 -29t32.5 -80t-32.5 -79.5t-71.5 -28.5t-72 28.5t-33 79.5z" />
<glyph unicode="&#xe6;" horiz-adv-x="1689" d="M61 256q0 -125 98.5 -200.5t266.5 -75.5q154 0 254 66.5t119 178.5h-21q59 -129 148.5 -187t226.5 -58q145 0 259 60t190 179l-134 84q-51 -86 -124.5 -128t-169.5 -42q-94 0 -162 40t-104 116t-36 180l-45 -39h787q2 6 3 19.5t1 29.5q0 143 -54.5 252t-149.5 170.5 t-220 61.5q-84 0 -158.5 -28t-133 -80t-95.5 -126h20q-14 115 -97 174.5t-222 59.5q-98 0 -190.5 -30t-170.5 -87l80 -125q41 31 88 53.5t97.5 33.5t95.5 11q96 0 147.5 -53t51.5 -152v-143h88q-104 66 -176 90.5t-156 24.5q-119 0 -209 -42t-141.5 -116t-51.5 -172z M227 276q0 90 62.5 137.5t181.5 47.5q72 0 135.5 -16.5t118.5 -47.5l-18 56l12 -215l6 155q-18 -137 -89 -202.5t-210 -65.5q-102 0 -150.5 37t-48.5 114zM827 569l45 -80q0 100 37 174t103.5 115t156.5 41q84 0 144.5 -33.5t94.5 -95t34 -145.5v-19.5t-4 -13.5l49 57h-660z " />
<glyph unicode="&#xe7;" horiz-adv-x="978" d="M61 471q0 -141 64.5 -253t175.5 -175t248 -63q96 0 187 31.5t141 88.5v205q-20 -45 -69.5 -85t-116 -63.5t-142.5 -23.5q-92 0 -165 44t-115 120t-42 174t42 175t115 120t165 43q76 0 142.5 -23.5t115.5 -62.5t70 -86v205q-49 57 -140.5 89t-187.5 32q-137 0 -248 -63.5 t-175.5 -174.5t-64.5 -254zM287 -375q43 -43 85 -60.5t99 -17.5t106.5 22.5t80 65.5t30.5 105q0 51 -22.5 84t-56.5 50t-68 17h-9.5h-9.5l129 230h-123l-176 -344q33 23 69 30t50 7q53 0 77.5 -18.5t24.5 -55.5t-24.5 -59.5t-77.5 -22.5q-39 0 -62.5 12.5t-52.5 36.5z" />
<glyph unicode="&#xe8;" horiz-adv-x="1054" d="M72 471q0 -141 58 -253t159.5 -175t228.5 -63q123 0 205 29.5t139.5 83.5t104.5 126l-133 84q-31 -51 -74 -89t-97.5 -59.5t-123.5 -21.5q-92 0 -160 39t-104.5 114.5t-36.5 184.5l4 61q0 88 40 153t107.5 99.5t149.5 34.5t138 -31.5t88 -88t40 -130.5h-629v-139h805 q2 12 2 24.5v24.5q0 150 -55.5 257.5t-155.5 167t-233 59.5q-121 0 -218.5 -49.5t-159 -137.5t-81.5 -205q-4 -25 -6 -49t-2 -51zM252 1413l369 -307l92 61l-307 328z" />
<glyph unicode="&#xe9;" horiz-adv-x="1054" d="M72 471q0 -141 58 -253t159.5 -175t228.5 -63q123 0 205 29.5t139.5 83.5t104.5 126l-133 84q-31 -51 -74 -89t-97.5 -59.5t-123.5 -21.5q-92 0 -160 39t-104.5 114.5t-36.5 184.5l4 61q0 88 40 153t107.5 99.5t149.5 34.5t138 -31.5t88 -88t40 -130.5h-629v-139h805 q2 12 2 24.5v24.5q0 150 -55.5 257.5t-155.5 167t-233 59.5q-121 0 -218.5 -49.5t-159 -137.5t-81.5 -205q-4 -25 -6 -49t-2 -51zM406 1167l92 -61l368 307l-153 82z" />
<glyph unicode="&#xea;" horiz-adv-x="1054" d="M72 471q0 -141 58 -253t159.5 -175t228.5 -63q123 0 205 29.5t139.5 83.5t104.5 126l-133 84q-31 -51 -74 -89t-97.5 -59.5t-123.5 -21.5q-92 0 -160 39t-104.5 114.5t-36.5 184.5l4 61q0 88 40 153t107.5 99.5t149.5 34.5t138 -31.5t88 -88t40 -130.5h-629v-139h805 q2 12 2 24.5v24.5q0 150 -55.5 257.5t-155.5 167t-233 59.5q-121 0 -218.5 -49.5t-159 -137.5t-81.5 -205q-4 -25 -6 -49t-2 -51zM211 1167l102 -82l226 195l225 -195l102 82l-327 287z" />
<glyph unicode="&#xeb;" horiz-adv-x="1054" d="M72 471q0 -141 58 -253t159.5 -175t228.5 -63q123 0 205 29.5t139.5 83.5t104.5 126l-133 84q-31 -51 -74 -89t-97.5 -59.5t-123.5 -21.5q-92 0 -160 39t-104.5 114.5t-36.5 184.5l4 61q0 88 40 153t107.5 99.5t149.5 34.5t138 -31.5t88 -88t40 -130.5h-629v-139h805 q2 12 2 24.5v24.5q0 150 -55.5 257.5t-155.5 167t-233 59.5q-121 0 -218.5 -49.5t-159 -137.5t-81.5 -205q-4 -25 -6 -49t-2 -51zM221 1198q0 -45 34 -79t79 -34q47 0 79.5 34t32.5 79q0 47 -32.5 80t-79.5 33q-45 0 -79 -33t-34 -80zM631 1198q0 -45 33.5 -79t78.5 -34 q47 0 80 34t33 79q0 47 -32.5 80t-80.5 33q-45 0 -78.5 -33t-33.5 -80z" />
<glyph unicode="&#xec;" horiz-adv-x="532" d="M-61 1434l368 -308l92 62l-307 328zM184 0h164v942h-164v-942z" />
<glyph unicode="&#xed;" horiz-adv-x="532" d="M133 1188l92 -62l369 308l-154 82zM184 0h164v942h-164v-942z" />
<glyph unicode="&#xee;" horiz-adv-x="532" d="M-61 1188l102 -82l225 194l226 -194l102 82l-328 287zM184 0h164v942h-164v-942z" />
<glyph unicode="&#xef;" horiz-adv-x="532" d="M-51 1260q0 -45 33.5 -79t78.5 -34q47 0 80 33.5t33 79.5q0 47 -32.5 79.5t-80.5 32.5q-45 0 -78.5 -32.5t-33.5 -79.5zM184 0h164v942h-164v-942zM358 1260q0 -45 34 -79t79 -34q47 0 80 33.5t33 79.5q0 47 -33 79.5t-80 32.5q-45 0 -79 -32.5t-34 -79.5z" />
<glyph unicode="&#xf0;" horiz-adv-x="1179" d="M102 471q0 -143 62.5 -254t173.5 -174t252 -63q143 0 252.5 63t172 174t62.5 254q0 82 -22.5 169t-70.5 180t-122 196.5t-176 220.5t-233 248l-99 -115q88 -80 160 -153.5t129 -144.5t103.5 -140.5t78.5 -140.5h95q-207 145 -394 145q-123 0 -218 -60.5t-150.5 -165 t-55.5 -239.5zM268 471q0 98 42 174t115 120t165 44t164.5 -44t114.5 -120t42 -174q0 -96 -41 -172t-113.5 -119t-166.5 -43t-167 43t-114 119t-41 172zM340 1126l37 -96l573 219l-37 97z" />
<glyph unicode="&#xf1;" horiz-adv-x="1075" d="M154 0h163v942h-163v-942zM201 1161l108 -76q0 16 8.5 41t31 44.5t63.5 19.5q47 0 80.5 -23.5t72.5 -48t94 -24.5q51 0 94.5 21.5t75 56t48.5 71.5l-95 88q-31 -49 -58.5 -73.5t-55.5 -24.5q-41 0 -68 14.5t-50.5 33.5t-55 33.5t-80.5 14.5q-45 0 -91.5 -21.5t-79 -58.5 t-42.5 -88zM244 573h73q0 68 30 121.5t84 84t126 30.5q100 0 150.5 -59.5t50.5 -176.5v-573h164v594q0 182 -89.5 275.5t-234.5 93.5q-98 0 -178 -51.5t-128 -138.5t-48 -200z" />
<glyph unicode="&#xf2;" horiz-adv-x="1118" d="M72 471q0 -141 64.5 -253t175 -175t247.5 -63q139 0 249 63t174.5 175t64.5 253q0 143 -64.5 254t-174.5 174.5t-249 63.5q-137 0 -247.5 -63.5t-175 -174.5t-64.5 -254zM231 1434l369 -308l92 62l-307 328zM238 471q0 98 42 175t114.5 120t164.5 43t165 -43t115 -120 t42 -175t-42 -174t-115 -120t-165 -44t-164.5 44t-114.5 120t-42 174z" />
<glyph unicode="&#xf3;" horiz-adv-x="1118" d="M72 471q0 -141 64.5 -253t175 -175t247.5 -63q139 0 249 63t174.5 175t64.5 253q0 143 -64.5 254t-174.5 174.5t-249 63.5q-137 0 -247.5 -63.5t-175 -174.5t-64.5 -254zM238 471q0 98 42 175t114.5 120t164.5 43t165 -43t115 -120t42 -175t-42 -174t-115 -120t-165 -44 t-164.5 44t-114.5 120t-42 174zM426 1188l92 -62l369 308l-154 82z" />
<glyph unicode="&#xf4;" horiz-adv-x="1118" d="M72 471q0 -141 64.5 -253t175 -175t247.5 -63q139 0 249 63t174.5 175t64.5 253q0 143 -64.5 254t-174.5 174.5t-249 63.5q-137 0 -247.5 -63.5t-175 -174.5t-64.5 -254zM231 1208l103 -82l225 195l225 -195l103 82l-328 287zM238 471q0 98 42 175t114.5 120t164.5 43 t165 -43t115 -120t42 -175t-42 -174t-115 -120t-165 -44t-164.5 44t-114.5 120t-42 174z" />
<glyph unicode="&#xf5;" horiz-adv-x="1118" d="M72 471q0 -141 64.5 -253t175 -175t247.5 -63q139 0 249 63t174.5 175t64.5 253q0 143 -64.5 254t-174.5 174.5t-249 63.5q-137 0 -247.5 -63.5t-175 -174.5t-64.5 -254zM221 1161l109 -76q0 16 8 41t30.5 44.5t63.5 19.5q47 0 81 -23.5t73 -48t94 -24.5q51 0 94 21.5 t75 56t48 71.5l-94 88q-31 -49 -58.5 -73.5t-56.5 -24.5q-41 0 -67.5 14.5t-50 33.5t-55.5 33.5t-81 14.5q-45 0 -91 -21.5t-79 -58.5t-43 -88zM238 471q0 98 42 175t114.5 120t164.5 43t165 -43t115 -120t42 -175t-42 -174t-115 -120t-165 -44t-164.5 44t-114.5 120 t-42 174z" />
<glyph unicode="&#xf6;" horiz-adv-x="1118" d="M72 471q0 -141 64.5 -253t175 -175t247.5 -63q139 0 249 63t174.5 175t64.5 253q0 143 -64.5 254t-174.5 174.5t-249 63.5q-137 0 -247.5 -63.5t-175 -174.5t-64.5 -254zM238 471q0 98 42 175t114.5 120t164.5 43t165 -43t115 -120t42 -175t-42 -174t-115 -120t-165 -44 t-164.5 44t-114.5 120t-42 174zM242 1260q0 -45 33.5 -79t78.5 -34q47 0 80 33.5t33 79.5q0 47 -33 79.5t-80 32.5q-45 0 -78.5 -32.5t-33.5 -79.5zM651 1260q0 -45 34 -79t79 -34q47 0 80 33.5t33 79.5q0 47 -33 79.5t-80 32.5q-45 0 -79 -32.5t-34 -79.5z" />
<glyph unicode="&#xf7;" horiz-adv-x="1275" d="M123 461h1024v164h-1024v-164zM522 143q0 -45 34 -78.5t79 -33.5q47 0 80 33.5t33 78.5q0 47 -33 80t-80 33q-45 0 -79 -33t-34 -80zM522 922q0 -45 34 -79t79 -34q47 0 80 34t33 79q0 47 -33 79.5t-80 32.5q-45 0 -79 -32.5t-34 -79.5z" />
<glyph unicode="&#xf8;" horiz-adv-x="1118" d="M72 471q0 -141 64.5 -253t175 -175t247.5 -63q139 0 249 63t174.5 175t64.5 253q0 143 -64.5 254t-174.5 174.5t-249 63.5q-137 0 -247.5 -63.5t-175 -174.5t-64.5 -254zM102 -49l93 -41l798 1073l-92 41zM238 471q0 98 42 175t114.5 120t164.5 43t165 -43t115 -120 t42 -175t-42 -174t-115 -120t-165 -44t-164.5 44t-114.5 120t-42 174z" />
<glyph unicode="&#xf9;" horiz-adv-x="1075" d="M154 348q0 -182 89 -275t234 -93q98 0 178 51t128 138t48 200h-73q0 -68 -30 -121t-84 -84t-126 -31q-100 0 -150.5 59.5t-50.5 176.5v573h-163v-594zM291 1434l368 -308l95 62l-308 328zM758 0h164v942h-164v-942z" />
<glyph unicode="&#xfa;" horiz-adv-x="1075" d="M154 348q0 -182 89 -275t234 -93q98 0 178 51t128 138t48 200h-73q0 -68 -30 -121t-84 -84t-126 -31q-100 0 -150.5 59.5t-50.5 176.5v573h-163v-594zM324 1188l90 -62l368 308l-151 82zM758 0h164v942h-164v-942z" />
<glyph unicode="&#xfb;" horiz-adv-x="1075" d="M154 348q0 -182 89 -275t234 -93q98 0 178 51t128 138t48 200h-73q0 -68 -30 -121t-84 -84t-126 -31q-100 0 -150.5 59.5t-50.5 176.5v573h-163v-594zM209 1208l102 -82l226 195l225 -195l102 82l-327 287zM758 0h164v942h-164v-942z" />
<glyph unicode="&#xfc;" horiz-adv-x="1075" d="M154 348q0 -182 89 -275t234 -93q98 0 178 51t128 138t48 200h-73q0 -68 -30 -121t-84 -84t-126 -31q-100 0 -150.5 59.5t-50.5 176.5v573h-163v-594zM221 1239q0 -45 33 -79t78 -34q47 0 80.5 34t33.5 79q0 47 -33.5 80t-80.5 33q-45 0 -78 -33t-33 -80zM631 1239 q0 -45 32.5 -79t77.5 -34q47 0 81 34t34 79q0 47 -34 80t-81 33q-45 0 -77.5 -33t-32.5 -80zM758 0h164v942h-164v-942z" />
<glyph unicode="&#xfd;" horiz-adv-x="901" d="M0 942l360 -809l-258 -584h185l614 1393h-184l-291 -729l68 -8l-299 737h-195zM256 1188l92 -62l369 308l-154 82z" />
<glyph unicode="&#xfe;" horiz-adv-x="1167" d="M143 -451h164v2048h-164v-2048zM233 471q0 -152 50.5 -262.5t139.5 -169.5t206 -59q129 0 234.5 59t169 169.5t63.5 262.5q0 154 -63.5 263.5t-169 169t-234.5 59.5q-117 0 -206 -59.5t-139.5 -169t-50.5 -263.5zM307 471q0 109 45 184.5t115 114.5t141 39q88 0 161 -39 t117 -114.5t44 -184.5t-44 -184.5t-117 -114.5t-161 -39q-72 0 -141.5 39t-114.5 114.5t-45 184.5z" />
<glyph unicode="&#xff;" horiz-adv-x="901" d="M0 942l360 -809l-258 -584h185l614 1393h-184l-291 -729l68 -8l-299 737h-195zM133 1198q0 -45 34 -79t79 -34q47 0 79.5 34t32.5 79q0 47 -32.5 80t-79.5 33q-45 0 -79 -33t-34 -80zM543 1198q0 -45 33.5 -79t78.5 -34q47 0 80 34t33 79q0 47 -33 80t-80 33 q-45 0 -78.5 -33t-33.5 -80z" />
<glyph unicode="&#x152;" horiz-adv-x="2017" d="M82 717q0 -160 53 -292t149.5 -227.5t227.5 -146.5t287 -51h1077v164h-705h-49h-323q-121 0 -220.5 39t-172 111.5t-111.5 175t-39 227.5t39 227.5t110.5 175t172 111.5t221.5 39h329h35h711v164h-1075q-156 0 -288 -51.5t-227.5 -146.5t-148.5 -227t-53 -292zM1055 61 h174v1311h-174v-1311zM1151 696h682v164h-682v-164z" />
<glyph unicode="&#x153;" horiz-adv-x="1843" d="M72 471q0 -152 63.5 -262.5t170 -169.5t233.5 -59q129 0 222 59t143 169.5t50 262.5q0 154 -50 263.5t-143 169t-222 59.5q-127 0 -233.5 -59.5t-170 -169t-63.5 -263.5zM238 471q0 109 44 184.5t117.5 114.5t159.5 39q72 0 136.5 -39t104.5 -114.5t40 -184.5t-40 -184.5 t-104.5 -114.5t-136.5 -39q-86 0 -159.5 39t-117.5 114.5t-44 184.5zM881 471q0 -141 58 -253t159.5 -175t228.5 -63q102 0 181 29.5t139.5 83.5t107.5 126l-133 84q-47 -76 -119.5 -123t-175.5 -47q-92 0 -159.5 39t-104.5 114.5t-37 184.5l4 61q0 88 40 153t107.5 99.5 t149.5 34.5q92 0 151.5 -40t89 -109.5t29.5 -157.5v-41l172 -41q2 12 2.5 24.5t0.5 24.5q0 150 -59.5 257.5t-156 167t-208.5 59.5q-121 0 -218.5 -49.5t-159 -137.5t-81.5 -205q-4 -25 -6 -49t-2 -51zM985 430h784l-40 139h-744v-139z" />
<glyph unicode="&#x178;" horiz-adv-x="1148" d="M10 1434l477 -818v-616h175v618l477 816h-195l-371 -664l-368 664h-195zM258 1690q0 -45 33 -79t78 -34q47 0 80.5 34t33.5 79q0 47 -33.5 79.5t-80.5 32.5q-45 0 -78 -32.5t-33 -79.5zM668 1690q0 -45 32.5 -79t77.5 -34q47 0 81 34t34 79q0 47 -34 79.5t-81 32.5 q-45 0 -77.5 -32.5t-32.5 -79.5z" />
<glyph unicode="&#x2c6;" horiz-adv-x="983" d="M164 1208l102 -82l226 195l225 -195l102 82l-327 287z" />
<glyph unicode="&#x2dc;" horiz-adv-x="1085" d="M205 1280l108 -76q0 16 8.5 41t31 44.5t63.5 19.5q47 0 80.5 -23.5t72.5 -48.5t95 -25q51 0 94 21.5t74.5 56.5t48.5 72l-95 88q-31 -49 -58.5 -73.5t-55.5 -24.5q-41 0 -67.5 14t-50.5 33.5t-55.5 34t-80.5 14.5q-45 0 -91 -21.5t-79 -58.5t-43 -88z" />
<glyph unicode="&#x2000;" horiz-adv-x="1008" />
<glyph unicode="&#x2001;" horiz-adv-x="2017" />
<glyph unicode="&#x2002;" horiz-adv-x="1008" />
<glyph unicode="&#x2003;" horiz-adv-x="2017" />
<glyph unicode="&#x2004;" horiz-adv-x="672" />
<glyph unicode="&#x2005;" horiz-adv-x="504" />
<glyph unicode="&#x2006;" horiz-adv-x="336" />
<glyph unicode="&#x2007;" horiz-adv-x="336" />
<glyph unicode="&#x2008;" horiz-adv-x="252" />
<glyph unicode="&#x2009;" horiz-adv-x="403" />
<glyph unicode="&#x200a;" horiz-adv-x="112" />
<glyph unicode="&#x2010;" horiz-adv-x="430" d="M10 410h410v153h-410v-153z" />
<glyph unicode="&#x2011;" horiz-adv-x="430" d="M10 410h410v153h-410v-153z" />
<glyph unicode="&#x2012;" horiz-adv-x="430" d="M10 410h410v153h-410v-153z" />
<glyph unicode="&#x2013;" horiz-adv-x="1515" d="M143 410h1229v153h-1229v-153z" />
<glyph unicode="&#x2014;" horiz-adv-x="1822" d="M143 410h1536v153h-1536v-153z" />
<glyph unicode="&#x2018;" horiz-adv-x="563" d="M143 963h195l123 471h-113z" />
<glyph unicode="&#x2019;" horiz-adv-x="563" d="M102 963h113l205 471h-195z" />
<glyph unicode="&#x201a;" horiz-adv-x="563" d="M123 -307h113l204 471h-194z" />
<glyph unicode="&#x201c;" horiz-adv-x="972" d="M143 963h195l123 471h-113zM553 963h195l122 471h-112z" />
<glyph unicode="&#x201d;" horiz-adv-x="972" d="M102 963h113l205 471h-195zM512 963h113l204 471h-194z" />
<glyph unicode="&#x201e;" horiz-adv-x="972" d="M102 -307h113l205 471h-195zM512 -307h113l204 471h-194z" />
<glyph unicode="&#x2022;" d="M195 850q0 -45 33.5 -79t78.5 -34q47 0 80 34t33 79q0 47 -33 80t-80 33q-45 0 -78.5 -33t-33.5 -80z" />
<glyph unicode="&#x2026;" horiz-adv-x="1843" d="M195 82q0 -45 33.5 -79t78.5 -34q47 0 80 34t33 79q0 47 -33 80t-80 33q-45 0 -78.5 -33t-33.5 -80zM809 82q0 -45 34 -79t79 -34q47 0 79.5 34t32.5 79q0 47 -32.5 80t-79.5 33q-45 0 -79 -33t-34 -80zM1423 82q0 -45 34 -79t79 -34q47 0 80 34t33 79q0 47 -33 80 t-80 33q-45 0 -79 -33t-34 -80z" />
<glyph unicode="&#x202f;" horiz-adv-x="403" />
<glyph unicode="&#x2039;" horiz-adv-x="716" d="M82 522l389 -481l102 92l-307 397l307 381l-102 93z" />
<glyph unicode="&#x203a;" horiz-adv-x="716" d="M143 133l103 -92l389 481l-389 482l-103 -93l308 -397z" />
<glyph unicode="&#x205f;" horiz-adv-x="504" />
<glyph unicode="&#x20ac;" horiz-adv-x="1187" d="M31 588h973v98h-973v-98zM31 834h1026v98h-1026v-98zM143 717q0 -215 80 -381t218.5 -261t316.5 -95q84 0 160.5 22.5t146.5 60.5v207q-131 -127 -307 -127q-131 0 -230.5 74t-155 204t-55.5 296q0 168 55.5 297t155 202.5t230.5 73.5q176 0 307 -127v207 q-70 41 -146.5 62.5t-160.5 21.5q-133 0 -246 -54t-196 -153.5t-128 -234.5t-45 -295z" />
<glyph unicode="&#x2122;" horiz-adv-x="1361" d="M66 1352h184v-635h88v635h184v82h-456v-82zM549 717h86l57 516l-57 235zM635 1294l287 -512l286 512v174l-286 -518l-287 518v-174zM1151 1233l57 -516h86l-86 751z" />
<glyph unicode="&#x25fc;" horiz-adv-x="942" d="M0 0v942h942v-942h-942z" />
</font>
</defs>
</svg>
